<svg viewBox="0 0 48 48" xmlns="http://www.w3.org/2000/svg" aria-hidden="true" style="display:block;height:24px;width:24px;fill:#e31c5f;stroke:currentcolor"><g stroke="none"><path d="m25 5 .585.005c4.29.076 8.837.984 13.645 2.737l.77.288V35.4l-.008.13a1 1 0 0 1-.47.724l-.116.06-11.423 5.078c.062-.746-.044-1.495-.321-2.279-.25-.704-.767-1.78-1.042-2.395a319.844 319.844 0 0 0-6.091-12.52l-.332-.638c-.469-.911-.825-1.63-1.315-2.205C18.14 20.481 17.115 20 16 20c-1.116 0-2.14.482-2.883 1.356-.605.711-1.03 1.682-1.646 2.841-.495.965-.987 1.934-1.473 2.904L10 8.03l.77-.286c4.797-1.75 9.336-2.658 13.62-2.737z" fill-opacity=".2"/><path d="M25 1c5.599 0 11.518 1.275 17.755 3.816a2 2 0 0 1 1.239 1.691L44 6.67V35.4a5 5 0 0 1-2.764 4.472l-.205.097-15.043 6.685c-.462.205-1.862.328-2.796.343L23 47v-1a5.121 5.121 0 0 0 1.88-.375 5 5 0 0 0 2.078-1.589l13.26-5.894a3 3 0 0 0 1.776-2.545l.006-.196V6.669l-.692-.278C35.557 4.128 30.121 3 25 3S14.443 4.128 8.692 6.391L8 6.67v24.493a315.793 315.793 0 0 0-2.001 4.218L6 6.669a2 2 0 0 1 1.245-1.853C13.483 2.275 19.401 1 25 1z"/></g><path d="m16 41.693.687-.885c1.595-2.033 2.592-3.888 2.96-5.512.281-1.232.233-2.517-.48-3.56-.68-.994-1.864-1.589-3.167-1.589-1.303 0-2.488.594-3.167 1.59-.71 1.039-.762 2.32-.481 3.557.368 1.625 1.365 3.48 2.961 5.514l.687.885.645.72c1.15 1.26 2.173 2.122 3.222 2.714.816.46 1.64.742 2.453.836a5.177 5.177 0 0 0 2.56-.338 5.031 5.031 0 0 0 3.07-3.939c.12-.844.026-1.685-.288-2.573-.25-.704-.767-1.78-1.042-2.395a319.844 319.844 0 0 0-6.091-12.52c-.65-1.223-1.048-2.14-1.647-2.843C18.14 20.481 17.115 20 16 20c-1.116 0-2.14.482-2.883 1.356-.605.711-1.03 1.682-1.646 2.841A320.593 320.593 0 0 0 5.38 36.718c-.282.63-.793 1.693-1.042 2.395-.314.887-.408 1.729-.287 2.573a5.03 5.03 0 0 0 3.07 3.939 5.16 5.16 0 0 0 2.559.338c.813-.095 1.638-.376 2.452-.836 1.05-.592 2.074-1.455 3.223-2.715z" fill="none" stroke-width="2"/></svg>