<svg viewBox="0 0 32 32" xmlns="http://www.w3.org/2000/svg" aria-hidden="true" role="presentation" focusable="false" style="display: block; height: 20px; width: 20px;"><defs><linearGradient x1="0%" y1="0%" y2="0%" id="orggradient"><stop stop-color="#C02641" stop-opacity=".5" offset="0%"></stop><stop stop-color="#C02641" offset="31.731%"></stop><stop stop-color="#C02641" offset="68.269%"></stop><stop stop-color="#C02641" stop-opacity=".5" offset="100%"></stop></linearGradient></defs><path d="M1.999 11.06A22.24 22.24 0 0 0 16 15.994a22.24 22.24 0 0 0 13.963-4.902c.025.122.037.248.037.376v18.398A2.144 2.144 0 0 1 27.846 32H4.154A2.144 2.144 0 0 1 2 29.865V11.466a2 2 0 0 1 .036-.376l-.037-.03zM19 20h-6l-.15.005a2 2 0 0 0-1.844 1.838L11 22v10h2V22h6v10h2V22l-.005-.15A2 2 0 0 0 19 20zM17.309.444l11.436 9.06A20.248 20.248 0 0 1 16 13.995c-4.825 0-9.258-1.681-12.745-4.49L14.687.439a2.17 2.17 0 0 1 2.622.006zM16 6a3 3 0 1 0 0 6 3 3 0 0 0 0-6zm0 2a1 1 0 1 1 0 2 1 1 0 0 1 0-2z" fill="#FA3E5F"></path><path d="M30 13.5V16H2v-2.5l5.168.678a22.26 22.26 0 0 0 8.835 1.815c3.14 0 6.128-.647 8.839-1.817L30 13.5z" fill="url(#orggradient)" opacity=".6"></path></svg>