<svg width="32" height="32" viewBox="0 0 32 32" xmlns="http://www.w3.org/2000/svg"><defs></defs><g data-name="12. Clock" id="_12._Clock"><path class="cls-1" d="M16 32A16.012 16.012 0 0 1 .141 13.868a1 1 0 0 1 1.983.264A14.168 14.168 0 0 0 2 16a14 14 0 0 0 26.835 5.6 1 1 0 1 1 1.833.8A16.007 16.007 0 0 1 16 32Zm14.869-13a1.017 1.017 0 0 1-.134-.009 1 1 0 0 1-.859-1.123A14.168 14.168 0 0 0 30 16a14 14 0 0 0-26.835-5.6 1 1 0 1 1-1.833-.8 16 16 0 0 1 30.527 8.532 1 1 0 0 1-.99.868Z"/><path class="cls-1" d="M16.02 6a1 1 0 0 1-.01-2h.01a1 1 0 0 1 0 2Zm7.78 3.222a1 1 0 0 1-.01-2h.01a1 1 0 1 1 0 2ZM27.02 17a1 1 0 0 1-.01-2h.01a1 1 0 0 1 0 2Zm-3.22 7.778a1 1 0 0 1-.01-2h.01a1 1 0 0 1 0 2ZM16.02 28a1 1 0 0 1-.01-2h.01a1 1 0 0 1 0 2Zm-7.778-3.222a1 1 0 0 1-.011-2h.011a1 1 0 0 1 0 2ZM5.02 17a1 1 0 0 1-.01-2h.01a1 1 0 0 1 0 2Zm3.222-7.778a1 1 0 0 1-.011-2h.011a1 1 0 1 1 0 2Z"/><path d="M13 20a1 1 0 0 1-.707-1.707L15 15.586V9a1 1 0 0 1 2 0v7a1 1 0 0 1-.293.707l-3 3A1 1 0 0 1 13 20Z" /></g></svg>