<svg xmlns="http://www.w3.org/2000/svg" viewBox="0 0 199.508 199.508" style="enable-background:new 0 0 199.508 199.508" xml:space="preserve"><path style="fill:#010002" d="M6.989 128.769v-19.905h66.76l-6.989-6.983H0v33.889h100.648l-6.993-7.001zm156.321-19.905v19.905h-40.015l6.986 7.001h40.022v-33.889H96.396l6.983 6.983zm11.18 26.906h20.951v-33.888H174.49v33.888zm6.983-26.906h6.986v19.906h-6.986v-19.906zm-4.613-49.861c5.529 4.667 8.206 9.394 7.949 14.065-.404 7.215-7.72 12.186-7.795 12.233l1.929 2.91c.365-.24 8.843-5.955 9.341-14.92.336-5.837-2.759-11.538-9.18-16.957-5.54-4.667-8.213-9.394-7.952-14.058.404-7.19 7.712-12.136 7.791-12.182l-1.922-2.913c-.365.236-8.833 5.923-9.344 14.87-.344 5.829 2.741 11.534 9.183 16.952zm7.351-17.919c1.278 7.523 8.457 11.495 8.772 11.66l1.657-3.071c-.061-.032-5.984-3.307-6.979-9.173-.687-4.03 1.106-8.439 5.336-13.106 5.375-5.919 7.437-11.137 6.131-15.514-1.7-5.662-8.321-7.44-8.604-7.512l-.866 3.382c.043.011 5.01 1.396 6.131 5.128.909 3.081-.948 7.287-5.368 12.172-4.994 5.498-7.087 10.895-6.21 16.034zm-8.271 149.12-4.939 4.935L20.342 44.48l4.935-4.935L175.94 190.204z"/></svg>