<svg
              width="58.71"
              height="58.71"
              viewBox="-3.68 0 58.71 58.71"
              xmlns="http://www.w3.org/2000/svg"
            >
              <path
                data-name="television tv"
                d="M47.62 19.419H30.604l17.25-17.252a1.273 1.273 0 1 0-1.8-1.8L27.008 19.416h-2.036l-9.671-9.673a1.281 1.281 0 0 0-1.8 0 1.273 1.273 0 0 0 0 1.8l7.872 7.874H3.713a3.719 3.719 0 0 0-3.715 3.719v25.687a3.72 3.72 0 0 0 3.715 3.718h43.9a3.729 3.729 0 0 0 3.72-3.718V23.138a3.728 3.728 0 0 0-3.713-3.719Zm1.172 29.406a1.19 1.19 0 0 1-1.172 1.174H3.72a1.187 1.187 0 0 1-1.172-1.174V23.138A1.191 1.191 0 0 1 3.72 21.96h43.9a1.194 1.194 0 0 1 1.172 1.178Zm-33.93 9.885h22.562v-2.543H14.862Z"
                fill="#2c3233"
              />
            </svg>